<svg viewBox="0 0 120 120" xmlns="http://www.w3.org/2000/svg"><circle cx="60" cy="60" r="60" fill="#17130E"/><g fill="none" color="#C8A45E"><circle cx="60" cy="60" r="8" stroke="currentColor" stroke-width="10.5"/><path d="M60.00 48.00C60.60 47.96 61.17 47.94 61.80 47.89C62.42 47.84 63.05 47.76 63.73 47.71C64.41 47.66 65.12 47.60 65.88 47.58C66.64 47.55 67.44 47.54 68.29 47.59C69.15 47.64 70.05 47.71 71.00 47.87C71.94 48.02 72.94 48.23 73.97 48.53C75.00 48.84 76.08 49.21 77.17 49.71C78.26 50.20 79.39 50.79 80.51 51.51C81.62 52.23 82.77 53.05 83.86 54.02C84.96 54.99 86.07 56.09 87.10 57.33C88.13 58.57 89.15 59.95 90.05 61.48C90.95 63.00 91.81 64.67 92.51 66.47C93.22 68.27 93.85 70.21 94.30 72.27C94.75 74.33 95.08 76.53 95.20 78.82C95.32 81.10 95.29 83.51 95.03 85.98C94.76 88.44 94.07 91.05 93.59 93.59" stroke="currentColor" stroke-width="10.5" stroke-linecap="round"/><path d="M60.00 48.00C60.60 47.96 61.17 47.94 61.80 47.89C62.42 47.84 63.05 47.76 63.73 47.71C64.41 47.66 65.12 47.60 65.88 47.58C66.64 47.55 67.44 47.54 68.29 47.59C69.15 47.64 70.05 47.71 71.00 47.87C71.94 48.02 72.94 48.23 73.97 48.53C75.00 48.84 76.08 49.21 77.17 49.71C78.26 50.20 79.39 50.79 80.51 51.51C81.62 52.23 82.77 53.05 83.86 54.02C84.96 54.99 86.07 56.09 87.10 57.33C88.13 58.57 89.15 59.95 90.05 61.48C90.95 63.00 91.81 64.67 92.51 66.47C93.22 68.27 93.85 70.21 94.30 72.27C94.75 74.33 95.08 76.53 95.20 78.82C95.32 81.10 95.29 83.51 95.03 85.98C94.76 88.44 94.07 91.05 93.59 93.59" stroke="currentColor" stroke-width="10.5" stroke-linecap="round" transform="rotate(120 60 60)"/><path d="M60.00 48.00C60.60 47.96 61.17 47.94 61.80 47.89C62.42 47.84 63.05 47.76 63.73 47.71C64.41 47.66 65.12 47.60 65.88 47.58C66.64 47.55 67.44 47.54 68.29 47.59C69.15 47.64 70.05 47.71 71.00 47.87C71.94 48.02 72.94 48.23 73.97 48.53C75.00 48.84 76.08 49.21 77.17 49.71C78.26 50.20 79.39 50.79 80.51 51.51C81.62 52.23 82.77 53.05 83.86 54.02C84.96 54.99 86.07 56.09 87.10 57.33C88.13 58.57 89.15 59.95 90.05 61.48C90.95 63.00 91.81 64.67 92.51 66.47C93.22 68.27 93.85 70.21 94.30 72.27C94.75 74.33 95.08 76.53 95.20 78.82C95.32 81.10 95.29 83.51 95.03 85.98C94.76 88.44 94.07 91.05 93.59 93.59" stroke="currentColor" stroke-width="10.5" stroke-linecap="round" transform="rotate(240 60 60)"/></g></svg>