<svg viewBox="0 0 120 120" fill="none" xmlns="http://www.w3.org/2000/svg" color="#A8843B"><circle cx="60" cy="60" r="7" stroke="currentColor" stroke-width="6"/><path d="M60.00 48.50C60.73 48.54 61.46 48.55 62.20 48.63C62.94 48.71 63.67 48.82 64.42 48.98C65.18 49.13 65.94 49.32 66.73 49.56C67.52 49.81 68.32 50.08 69.15 50.44C69.97 50.80 70.83 51.21 71.69 51.72C72.55 52.23 73.44 52.81 74.32 53.51C75.19 54.22 76.09 55.01 76.94 55.95C77.80 56.89 78.66 57.94 79.43 59.15C80.19 60.36 80.95 61.70 81.56 63.20C82.17 64.69 82.73 66.34 83.09 68.12C83.46 69.90 83.72 71.84 83.75 73.88C83.77 75.92 83.64 78.12 83.22 80.36C82.80 82.61 82.18 84.99 81.22 87.35C80.27 89.71 79.06 92.17 77.50 94.53C75.94 96.89 74.07 99.29 71.85 101.51C69.63 103.72 66.74 105.71 64.18 107.82" stroke="currentColor" stroke-width="6" stroke-linecap="round"/><path d="M60.00 48.50C60.73 48.54 61.46 48.55 62.20 48.63C62.94 48.71 63.67 48.82 64.42 48.98C65.18 49.13 65.94 49.32 66.73 49.56C67.52 49.81 68.32 50.08 69.15 50.44C69.97 50.80 70.83 51.21 71.69 51.72C72.55 52.23 73.44 52.81 74.32 53.51C75.19 54.22 76.09 55.01 76.94 55.95C77.80 56.89 78.66 57.94 79.43 59.15C80.19 60.36 80.95 61.70 81.56 63.20C82.17 64.69 82.73 66.34 83.09 68.12C83.46 69.90 83.72 71.84 83.75 73.88C83.77 75.92 83.64 78.12 83.22 80.36C82.80 82.61 82.18 84.99 81.22 87.35C80.27 89.71 79.06 92.17 77.50 94.53C75.94 96.89 74.07 99.29 71.85 101.51C69.63 103.72 66.74 105.71 64.18 107.82" stroke="currentColor" stroke-width="6" stroke-linecap="round" transform="rotate(120 60 60)"/><path d="M60.00 48.50C60.73 48.54 61.46 48.55 62.20 48.63C62.94 48.71 63.67 48.82 64.42 48.98C65.18 49.13 65.94 49.32 66.73 49.56C67.52 49.81 68.32 50.08 69.15 50.44C69.97 50.80 70.83 51.21 71.69 51.72C72.55 52.23 73.44 52.81 74.32 53.51C75.19 54.22 76.09 55.01 76.94 55.95C77.80 56.89 78.66 57.94 79.43 59.15C80.19 60.36 80.95 61.70 81.56 63.20C82.17 64.69 82.73 66.34 83.09 68.12C83.46 69.90 83.72 71.84 83.75 73.88C83.77 75.92 83.64 78.12 83.22 80.36C82.80 82.61 82.18 84.99 81.22 87.35C80.27 89.71 79.06 92.17 77.50 94.53C75.94 96.89 74.07 99.29 71.85 101.51C69.63 103.72 66.74 105.71 64.18 107.82" stroke="currentColor" stroke-width="6" stroke-linecap="round" transform="rotate(240 60 60)"/></svg>